<svg width="15" height="29" viewBox="0 0 15 29" fill="none" xmlns="http://www.w3.org/2000/svg">
<rect width="15" height="29" fill="#F5F5F5"/>
<path d="M9.04199 0.258789V4.63867H6.78613V0.258789H9.04199ZM8.76367 24.1797V28.1055H6.52246V24.1797H8.76367ZM10.9756 19.4482C10.9756 18.8818 10.8584 18.3887 10.624 17.9688C10.3994 17.5391 10.0283 17.1533 9.51074 16.8115C8.99316 16.46 8.2998 16.1328 7.43066 15.8301C6.18066 15.3906 5.08691 14.8975 4.14941 14.3506C3.22168 13.7939 2.49902 13.1104 1.98145 12.2998C1.47363 11.4795 1.21973 10.459 1.21973 9.23828C1.21973 8.03711 1.49316 6.99707 2.04004 6.11816C2.59668 5.23926 3.36816 4.56055 4.35449 4.08203C5.34082 3.60352 6.49316 3.36426 7.81152 3.36426C8.82715 3.36426 9.74023 3.51562 10.5508 3.81836C11.3711 4.12109 12.0693 4.56543 12.6455 5.15137C13.2217 5.7373 13.6611 6.45996 13.9639 7.31934C14.2764 8.16895 14.4326 9.14551 14.4326 10.249H10.917C10.917 9.62402 10.8438 9.06738 10.6973 8.5791C10.5605 8.08105 10.3555 7.66113 10.082 7.31934C9.80859 6.96777 9.47656 6.69922 9.08594 6.51367C8.70508 6.32812 8.27051 6.23535 7.78223 6.23535C7.08887 6.23535 6.51758 6.36719 6.06836 6.63086C5.61914 6.88477 5.28711 7.23633 5.07227 7.68555C4.86719 8.13477 4.76465 8.64746 4.76465 9.22363C4.76465 9.78027 4.87207 10.2686 5.08691 10.6885C5.30176 11.1084 5.66797 11.4893 6.18555 11.8311C6.71289 12.1631 7.43555 12.5 8.35352 12.8418C9.61328 13.291 10.7021 13.7939 11.6201 14.3506C12.5479 14.8975 13.2607 15.5762 13.7588 16.3867C14.2666 17.1875 14.5205 18.1982 14.5205 19.4189C14.5205 20.6787 14.2275 21.748 13.6416 22.627C13.0654 23.5059 12.2549 24.1748 11.21 24.6338C10.1748 25.083 8.96875 25.3076 7.5918 25.3076C6.72266 25.3076 5.8584 25.1953 4.99902 24.9707C4.14941 24.7363 3.37793 24.3555 2.68457 23.8281C1.99121 23.3008 1.43945 22.6025 1.0293 21.7334C0.619141 20.8545 0.414062 19.7803 0.414062 18.5107H3.95898C3.95898 19.2725 4.06152 19.9072 4.2666 20.415C4.47168 20.9229 4.75 21.3232 5.10156 21.6162C5.45312 21.9092 5.84375 22.1191 6.27344 22.2461C6.71289 22.373 7.15234 22.4365 7.5918 22.4365C8.32422 22.4365 8.93945 22.3145 9.4375 22.0703C9.94531 21.8164 10.3262 21.4648 10.5801 21.0156C10.8438 20.5566 10.9756 20.0342 10.9756 19.4482Z" fill="#003366"/>
</svg>
